<svg width="48" height="48" viewBox="0 0 48 48" fill="none" xmlns="http://www.w3.org/2000/svg">
<path d="M19.971 5.94092C20.495 4.27512 21.9354 3 23.7574 3C25.5794 3 27.0198 4.27512 27.5438 5.94092C28.167 5.4902 28.922 5.22222 29.7574 5.22222C32.063 5.22222 33.7574 7.26404 33.7574 9.55556V10.2414C34.3366 9.87814 35.0154 9.66666 35.7574 9.66666C38.063 9.66666 39.7574 11.7085 39.7574 14V20C39.7574 20.5522 39.3096 21 38.7574 21C38.205 21 37.7574 20.5522 37.7574 20V14C37.7574 12.6096 36.7654 11.6667 35.7574 11.6667C34.7492 11.6667 33.7574 12.6096 33.7574 14V18C33.7574 18.5523 33.3096 19 32.7574 19C32.205 19 31.7574 18.5523 31.7574 18V9.55556C31.7574 8.16518 30.7654 7.22222 29.7574 7.22222C28.7492 7.22222 27.7574 8.16518 27.7574 9.55556V20.6666C27.7574 21.219 27.3096 21.6666 26.7574 21.6666C26.205 21.6666 25.7574 21.219 25.7574 20.6666V7.33334C25.7574 5.94296 24.7654 5 23.7574 5C22.7492 5 21.7574 5.94296 21.7574 7.33334V22.8888C21.7574 23.4412 21.3096 23.8888 20.7574 23.8888C20.205 23.8888 19.7574 23.4412 19.7574 22.8888V9.55556C19.7574 8.16518 18.7654 7.22222 17.7574 7.22222C16.7493 7.22222 15.7574 8.16518 15.7574 9.55556V28.4444C15.7574 28.8624 15.4975 29.2362 15.1058 29.3818C14.7142 29.5274 14.2732 29.4142 14.0002 29.0978L8.37167 22.5744C7.59709 21.7212 6.39419 21.7236 5.62199 22.5816C4.79269 23.503 4.79269 25.0362 5.62199 25.9576C5.63781 25.9752 5.65301 25.9934 5.66755 26.012L10.5632 32.2962L13.4369 36.2032C13.4594 36.234 13.4802 36.2658 13.4991 36.2988C15.9082 40.5052 20.0482 43 24.4426 43H24.7574C25.3096 43 25.7574 43.4478 25.7574 44C25.7574 44.5522 25.3096 45 24.7574 45H24.4426C19.2819 45 14.5277 42.081 11.7925 37.3432L8.96001 33.4926L4.11019 27.2674C2.62159 25.5836 2.62999 22.9162 4.13539 21.2436C5.70421 19.5005 8.29581 19.5005 9.86463 21.2436L9.87861 21.2592L13.7574 25.7548V9.55556C13.7574 7.26404 15.4517 5.22222 17.7574 5.22222C18.5926 5.22222 19.3477 5.4902 19.971 5.94092Z" fill="#DC1922"/>
<path d="M38.2186 33.1983C38.6092 32.8079 38.6094 32.1747 38.219 31.7839C37.8286 31.3933 37.1956 31.3931 36.8048 31.7835L34.0042 34.5819L32.074 32.6297C31.6858 32.2369 31.0526 32.2333 30.6598 32.6217C30.2672 33.0099 30.2636 33.6431 30.6518 34.0359L33.2888 36.7031C33.476 36.8923 33.7308 36.9991 33.997 36.9999C34.263 37.0007 34.5186 36.8955 34.7068 36.7073L38.2186 33.1983Z" fill="#DC1922"/>
<path fill-rule="evenodd" clip-rule="evenodd" d="M33.2724 23.151C33.7502 23.0316 34.2498 23.0316 34.7276 23.151L42.2426 25.0298C42.6878 25.1412 43 25.5412 43 26V32C43 36.0918 41.0734 39.9448 37.8 42.4L35.8 43.9C34.7334 44.7 33.2666 44.7 32.2 43.9L30.2 42.4C26.9266 39.9448 25 36.0918 25 32V26C25 25.5412 25.3122 25.1412 25.7574 25.0298L33.2724 23.151ZM34.2426 25.0914C34.0832 25.0516 33.9168 25.0516 33.7574 25.0914L27 26.7808V32C27 35.4622 28.6302 38.7226 31.4 40.8L33.4 42.3C33.7556 42.5666 34.2444 42.5666 34.6 42.3L36.6 40.8C39.3698 38.7226 41 35.4622 41 32V26.7808L34.2426 25.0914Z" fill="#DC1922"/>
</svg>
