<svg width="24" height="24" viewBox="0 0 24 24" fill="none" xmlns="http://www.w3.org/2000/svg">
<path d="M18.7383 10.253L10.6066 18.3848C9.04388 19.9475 6.51244 19.9475 4.94973 18.3848C3.38703 16.8221 3.38703 14.2906 4.94973 12.7279L13.7886 3.88909C14.7644 2.91328 16.3483 2.91328 17.3241 3.88909C18.2999 4.86489 18.2999 6.44881 17.3241 7.42462L9.89948 14.8492C9.51057 15.2382 8.87418 15.2382 8.48527 14.8492C8.09636 14.4603 8.09636 13.8239 8.48527 13.435L15.2028 6.71751L14.1421 5.65685L7.42461 12.3744C6.4488 13.3502 6.4488 14.9341 7.42461 15.9099C8.40042 16.8857 9.98433 16.8857 10.9601 15.9099L18.3848 8.48528C19.9475 6.92258 19.9475 4.39113 18.3848 2.82843C16.8221 1.26572 14.2906 1.26572 12.7279 2.82843L3.88907 11.6673C1.73947 13.8169 1.73947 17.2958 3.88907 19.4454C6.03868 21.595 9.51764 21.595 11.6672 19.4454L19.799 11.3137L18.7383 10.253Z" fill="black" fill-opacity="0.54"/>
</svg>
