<svg width="20" height="20" viewBox="0 0 20 20" fill="none" xmlns="http://www.w3.org/2000/svg">
<path fill-rule="evenodd" clip-rule="evenodd" d="M11.4286 1.42857H8.57143C6.51074 1.42857 5.10893 1.43161 4.05919 1.57274C3.05054 1.70835 2.58337 1.94745 2.26541 2.26541C1.94745 2.58337 1.70835 3.05054 1.57274 4.05919C1.43161 5.10893 1.42857 6.51074 1.42857 8.57143V11.4286C1.42857 13.4893 1.43161 14.8911 1.57274 15.9408C1.70835 16.9495 1.94745 17.4166 2.26541 17.7346C2.58337 18.0525 3.05054 18.2917 4.05919 18.4273C5.10893 18.5684 6.51074 18.5714 8.57143 18.5714H11.4286C13.4893 18.5714 14.8911 18.5684 15.9408 18.4273C16.9495 18.2917 17.4166 18.0525 17.7346 17.7346C18.0525 17.4166 18.2917 16.9495 18.4273 15.9408C18.5684 14.8911 18.5714 13.4893 18.5714 11.4286V8.57143C18.5714 6.51074 18.5684 5.10893 18.4273 4.05919C18.2917 3.05054 18.0525 2.58337 17.7346 2.26541C17.4166 1.94745 16.9495 1.70835 15.9408 1.57274C14.8911 1.43161 13.4893 1.42857 11.4286 1.42857ZM1.25526 1.25526C0 2.51051 0 4.53082 0 8.57143V11.4286C0 15.4692 0 17.4895 1.25526 18.7447C2.51051 20 4.53082 20 8.57143 20H11.4286C15.4692 20 17.4895 20 18.7447 18.7447C20 17.4895 20 15.4692 20 11.4286V8.57143C20 4.53082 20 2.51051 18.7447 1.25526C17.4895 0 15.4692 0 11.4286 0H8.57143C4.53082 0 2.51051 0 1.25526 1.25526ZM10 14.2857C12.3669 14.2857 14.2857 12.3669 14.2857 9.99999C14.2857 7.63306 12.3669 5.71428 10 5.71428C7.63307 5.71428 5.71429 7.63306 5.71429 9.99999C5.71429 12.3669 7.63307 14.2857 10 14.2857ZM10 15.7143C13.1559 15.7143 15.7143 13.1559 15.7143 9.99999C15.7143 6.84408 13.1559 4.28571 10 4.28571C6.84409 4.28571 4.28572 6.84408 4.28572 9.99999C4.28572 13.1559 6.84409 15.7143 10 15.7143ZM16.0714 5C16.6632 5 17.1429 4.5203 17.1429 3.92857C17.1429 3.33683 16.6632 2.85714 16.0714 2.85714C15.4797 2.85714 15 3.33683 15 3.92857C15 4.5203 15.4797 5 16.0714 5Z" fill="#3F3F3F"/>
</svg>
