<svg width="22" height="19" viewBox="0 0 22 19" fill="none" xmlns="http://www.w3.org/2000/svg">
<path d="M20.3713 0.00194539C20.0996 0.0209511 19.8329 0.0822365 19.5816 0.183411H19.5783C19.3371 0.275364 18.1903 0.7392 16.4468 1.44228L10.199 3.97222C5.71592 5.78687 1.30899 7.57386 1.30899 7.57386L1.36146 7.55433C1.36146 7.55433 1.05762 7.65035 0.740242 7.85949C0.544167 7.97945 0.375444 8.13641 0.244282 8.32088C0.0885538 8.54059 -0.0367058 8.87667 0.0098434 9.22414C0.0860147 9.81167 0.482106 10.164 0.766479 10.3585C1.05424 10.5554 1.32845 10.6474 1.32845 10.6474H1.33522L5.46794 11.986C5.65329 12.5581 6.72731 15.953 6.98545 16.735C7.13779 17.2021 7.2859 17.4943 7.47125 17.7172C7.56096 17.8311 7.66591 17.9264 7.79202 18.0028C7.85757 18.0395 7.92747 18.0685 8.00022 18.0891L7.9579 18.0793C7.97059 18.0826 7.98075 18.0924 7.99006 18.0956C8.02392 18.1046 8.04677 18.1078 8.08993 18.1143C8.74416 18.3047 9.26974 17.9141 9.26974 17.9141L9.29936 17.8914L11.7394 15.7553L15.8289 18.7718L15.922 18.8101C16.7743 19.1698 17.6376 18.9696 18.0938 18.6164C18.5533 18.2608 18.7319 17.8059 18.7319 17.8059L18.7615 17.7327L21.9218 2.16651C22.0115 1.78242 22.0344 1.42275 21.9353 1.07365C21.8332 0.720342 21.5975 0.416474 21.2743 0.221657C21.003 0.0630699 20.6884 -0.0134763 20.3713 0.00194539ZM20.2858 1.67013C20.2824 1.72139 20.2926 1.7157 20.2689 1.81416V1.82311L17.1382 17.2273C17.1247 17.2493 17.1018 17.2973 17.0392 17.3453C16.9732 17.3958 16.9207 17.4275 16.6457 17.3226L11.6437 13.6355L8.62228 16.2834L9.25704 12.3855L17.4294 5.06182C17.7662 4.76074 17.6537 4.69727 17.6537 4.69727C17.6774 4.32782 17.145 4.58904 17.145 4.58904L6.83987 10.7271L6.83649 10.7109L1.8972 9.11184V9.10859L1.88451 9.10615C1.89316 9.10338 1.90164 9.10012 1.9099 9.09638L1.93698 9.08336L1.96322 9.07441C1.96322 9.07441 6.37354 7.28742 10.8566 5.47277C13.1012 4.56381 15.3626 3.64835 17.1018 2.94201C18.8411 2.23975 20.1267 1.72465 20.1995 1.69698C20.2689 1.67094 20.2359 1.67094 20.2858 1.67094V1.67013Z" fill="#3F3F3F"/>
</svg>
