<svg width="24" height="14" viewBox="0 0 24 14" fill="none" xmlns="http://www.w3.org/2000/svg">
<path d="M18.9707 14C18.5716 14 17.9329 13.9176 17.2144 13.4235C16.6556 13.0941 16.2565 12.6 15.7775 12.0235C15.538 11.6941 15.059 11.2824 14.8195 11.1176C14.7397 11.2824 14.5801 11.8588 14.5801 12.2706C14.5801 12.4353 14.5801 13.0118 14.1809 13.4235C13.7818 13.8353 13.2229 13.9176 13.0633 13.9176H12.9835H11.6263C11.5465 13.9176 8.35331 14.0824 5.55926 11.2C2.68537 8.31765 0.210642 2.71765 0.130812 2.47059C-0.0288482 2.05882 -0.108678 1.48235 0.290472 0.988235C0.689622 0.576471 1.24843 0.494118 1.48792 0.494118H4.76096H4.84079C4.92062 0.494118 5.31977 0.576471 5.71892 0.823529C6.03824 1.07059 6.1979 1.4 6.27773 1.56471C6.27773 1.56471 6.75671 2.8 7.39535 3.87059C8.11382 5.02353 8.51297 5.51765 8.75246 5.84706C8.75246 5.35294 8.83229 4.52941 8.75246 3.70588C8.75246 3.29412 8.67263 2.8 8.5928 2.71765C8.5928 2.63529 8.35331 2.55294 8.11382 2.55294L7.7945 2.47059H7.55501L7.47518 2.22353L7.39535 1.81176C7.31552 1.15294 7.95416 0.576471 8.43314 0.329412C9.15161 0 10.1894 0 11.5465 0C12.5045 0 12.8238 0.0823529 13.3028 0.164706C14.8195 0.494118 14.7397 1.81176 14.6599 3.21176C14.6599 3.62353 14.6599 4.03529 14.6599 4.61176C14.6599 4.77647 14.6599 4.85882 14.6599 5.02353C14.6599 5.18824 14.6599 5.51765 14.6599 5.76471C14.8994 5.51765 15.2985 4.94118 15.9372 3.95294C16.5758 2.88235 17.1346 1.56471 17.1346 1.56471C17.2144 1.4 17.3741 0.988235 17.7733 0.823529C18.0926 0.658824 18.4917 0.658824 18.6514 0.658824H21.9244C22.3236 0.576471 23.521 0.576471 23.9202 1.48235C24.1597 2.14118 23.9202 3.12941 22.0841 5.6C21.7648 6.01177 21.5253 6.25882 21.2858 6.58824C20.8068 7.16471 20.4076 7.74118 20.3278 7.90588C20.4076 7.98824 20.8068 8.4 21.2858 8.72941C22.4832 9.8 23.2815 10.7059 23.6807 11.4471C24.1597 12.1882 24 12.7647 23.8403 13.0941C23.4412 13.9176 22.4034 14 22.2437 14H19.1304C19.1304 14 19.0505 14 18.9707 14ZM14.8195 9.47059C15.6178 9.47059 16.2565 10.2118 16.975 10.9529C17.3741 11.3647 17.7733 11.7765 18.0926 12.0235C18.6514 12.3529 18.9707 12.3529 19.0505 12.3529H19.1304H22.0841C22.0841 12.3529 22.1639 12.3529 22.2437 12.3529V12.2706C21.9244 11.6941 21.2059 10.9529 20.248 10.0471C18.1724 8.23529 18.3321 7.65882 20.0085 5.51765C20.248 5.27059 20.4875 4.94118 20.727 4.52941C21.6849 3.21176 22.0841 2.55294 22.2437 2.22353C22.1639 2.22353 22.0841 2.22353 22.0042 2.22353H21.9244H18.5716C18.4119 2.55294 17.9329 3.70588 17.2943 4.77647C16.1767 6.58824 14.9792 8.15294 13.8616 7.49412C12.9835 6.91765 12.9835 5.76471 13.0633 4.94118C13.0633 4.77647 13.0633 4.69412 13.0633 4.61176C13.0633 4.03529 13.0633 3.54118 13.0633 3.12941C13.0633 2.63529 13.1431 1.97647 13.0633 1.81176H12.9835C12.5843 1.72941 12.3448 1.64706 11.5465 1.64706C11.0675 1.64706 10.4289 1.64706 9.87008 1.64706C10.3491 2.30588 10.3491 3.37647 10.3491 3.70588C10.5087 5.84706 10.1894 7.16471 9.47093 7.57647C8.19365 8.23529 7.07603 6.58824 6.03824 4.77647C5.31977 3.62353 4.76096 2.30588 4.76096 2.22353C4.76096 2.22353 4.68113 2.14118 4.60129 2.14118H1.72741C2.36605 3.54118 4.44164 7.82353 6.67688 10.1294C8.99195 12.4353 11.6263 12.3529 11.6263 12.3529H12.9835C12.9835 12.3529 12.9835 12.3529 13.0633 12.3529C13.0633 11.7765 13.1431 9.96471 14.4204 9.55294C14.5801 9.47059 14.6599 9.47059 14.8195 9.47059Z" fill="#3F3F3F"/>
</svg>
