<svg width="48" height="48" fill="none" xmlns="http://www.w3.org/2000/svg"><path d="M4.64 29.686a.75.75 0 001.22 0l3.75-5.25A.75.75 0 009 23.25H7.517C7.91 14.499 15.154 7.5 24 7.5a16.39 16.39 0 0111.665 4.835.75.75 0 001.06 0l2.123-2.122a.75.75 0 000-1.06A20.86 20.86 0 0024 3C12.672 3 3.41 12.017 3.014 23.25H1.5a.749.749 0 00-.61 1.186l3.75 5.25zm-.89-4.936A.75.75 0 004.5 24C4.5 13.248 13.248 4.5 24 4.5a19.36 19.36 0 0113.247 5.192l-1.063 1.063A17.869 17.869 0 0024 6C14.075 6 6 14.075 6 24c0 .414.336.75.75.75h.793L5.25 27.96l-2.293-3.21h.793zm39-6.75a.75.75 0 00-.61.314l-3.75 5.25A.75.75 0 0039 24.75h1.483C40.09 33.501 32.846 40.5 24 40.5a16.391 16.391 0 01-11.665-4.835.75.75 0 00-1.06 0l-2.123 2.122a.75.75 0 000 1.06A20.859 20.859 0 0024 45c11.328 0 20.59-9.017 20.986-20.25H46.5a.749.749 0 00.61-1.186l-3.75-5.249a.75.75 0 00-.61-.315zm1.5 5.25a.75.75 0 00-.75.75c0 10.752-8.748 19.5-19.5 19.5a19.361 19.361 0 01-13.247-5.192l1.063-1.063A17.869 17.869 0 0024 42c9.925 0 18-8.075 18-18a.75.75 0 00-.75-.75h-.793l2.292-3.209 2.293 3.209h-.792z" fill="#DC1922"/><path d="M24 37.5c7.444 0 13.5-6.056 13.5-13.5S31.444 10.5 24 10.5 10.5 16.556 10.5 24 16.556 37.5 24 37.5zM24 12c6.616 0 12 5.384 12 12s-5.384 12-12 12-12-5.384-12-12 5.384-12 12-12z" fill="#DC1922"/><path d="M23.25 13.499h1.5v2.25h-1.5V13.5zm0 18.751h1.5v2.25h-1.5v-2.25zm9-9h2.25v1.5h-2.25v-1.5zm-18.75 0h2.25v1.5H13.5v-1.5zm2.465 7.718l1.5-1.5 1.06 1.06-1.5 1.5-1.06-1.06zm13.5-13.497l1.5-1.5 1.06 1.061-1.5 1.5-1.06-1.06zm-13.499-.441l1.06-1.06 1.5 1.5-1.06 1.06-1.5-1.5zm13.497 13.5l1.06-1.06 1.5 1.5-1.06 1.06-1.5-1.5zm-2.993-3l1.06-1.06-2.78-2.78v-6.44h-1.5V24c0 .199.079.39.22.53l3 3z" fill="#DC1922"/></svg>