<svg width="48" height="48" fill="none" xmlns="http://www.w3.org/2000/svg"><path d="M32.25 31.5h-16.5A3.754 3.754 0 0012 35.25v1.5c0 .415.335.75.75.75h22.5a.75.75 0 00.75-.75v-1.5a3.754 3.754 0 00-3.75-3.75zM34.5 36h-21v-.75c0-1.24 1.01-2.25 2.25-2.25h16.5c1.24 0 2.25 1.01 2.25 2.25V36z" fill="#DC1922"/><path d="M47.25 21.75c0-1.24-1.01-2.25-2.25-2.25h-1.5a2.66 2.66 0 00-2.32 1.364l-.86-2.365a7.605 7.605 0 00-7.137-4.999h-8.471c.015-.249.038-.496.038-.75 0-6.617-5.384-12-12-12-6.617 0-12 5.383-12 12 0 2.509.776 4.837 2.098 6.766A2.245 2.245 0 00.75 21.75C.75 22.99 1.76 24 3 24h1.678l-2.909 2.423a.754.754 0 00-.255.43 39.503 39.503 0 00-.764 7.722v2.053c0 1.608.255 3.196.75 4.725v2.897c0 1.654 1.345 3 3 3h2.25c1.655 0 3-1.346 3-3V42h1.814c.87 0 1.728-.14 2.548-.414a6.563 6.563 0 012.074-.336h15.628c.706 0 1.404.113 2.073.336a8.02 8.02 0 002.549.414h1.814v2.25c0 1.654 1.346 3 3 3h2.25c1.654 0 3-1.346 3-3v-2.897c.495-1.528.75-3.117.75-4.724v-2.054c0-2.587-.257-5.185-.765-7.722a.752.752 0 00-.255-.429L43.322 24H45c1.24 0 2.25-1.01 2.25-2.25zm-4.887.138A1.17 1.17 0 0143.5 21H45a.75.75 0 010 1.5h-2.79l.153-.612zM33.183 15a6.104 6.104 0 015.728 4.011l1.236 3.398c-1.18-.1-2.362-.191-3.548-.268a4.476 4.476 0 00-4.349-3.391 4.507 4.507 0 00-4.243 3.038 185.58 185.58 0 00-3.29-.038h-1.433c-.872 0-1.758.008-2.646.021A11.985 11.985 0 0024.53 15h8.652zm1.807 7.05c-1.788-.1-3.58-.178-5.369-.227a2.982 2.982 0 015.37.227zM12.75 2.25c5.79 0 10.5 4.71 10.5 10.5s-4.71 10.5-10.5 10.5-10.5-4.71-10.5-10.5 4.71-10.5 10.5-10.5zm-10.5 19.5A.75.75 0 013 21h1.058a12.115 12.115 0 001.723 1.5H3a.75.75 0 01-.75-.75zm6 22.5c0 .827-.673 1.5-1.5 1.5H4.5c-.827 0-1.5-.673-1.5-1.5V42h5.25v2.25zm35.25 1.5h-2.25c-.827 0-1.5-.673-1.5-1.5V42H45v2.25c0 .827-.673 1.5-1.5 1.5zm2.25-9.121a13.84 13.84 0 01-.551 3.871h-8.763a6.524 6.524 0 01-2.074-.336 8.036 8.036 0 00-2.548-.414H16.186c-.868 0-1.725.14-2.549.414a6.516 6.516 0 01-2.073.336H2.801a13.844 13.844 0 01-.551-3.871v-2.054c0-2.056.18-4.116.513-6.147l.482 1.207A2.956 2.956 0 006 31.5h3.629c1.655 0 3.29-.265 4.859-.789a.75.75 0 00.149-1.354 20.426 20.426 0 00-8.413-2.789l-2.039-.204 3.046-2.538a.728.728 0 00.092-.1c.005-.006.014-.009.02-.015.002-.003.002-.008.005-.011a.736.736 0 00.109-.194l.001-.004a11.885 11.885 0 005.292 1.248c2.054 0 3.99-.52 5.681-1.434 1.628-.044 3.26-.066 4.853-.066h1.432c5.396 0 10.856.247 16.236.729l2.864 2.386-2.04.204a20.413 20.413 0 00-8.412 2.788.749.749 0 00.149 1.355c1.57.523 3.205.788 4.858.788h3.63c1.22 0 2.3-.733 2.754-1.866l.482-1.206c.334 2.03.513 4.091.513 6.147v2.053zm-41.595-8.76l1.92.192a18.92 18.92 0 016.13 1.698c-.847.16-1.709.241-2.576.241H6a1.458 1.458 0 01-1.361-.922l-.484-1.209zm39.69 0l-.484 1.207A1.459 1.459 0 0142 30h-3.629c-.867 0-1.728-.08-2.576-.24a18.897 18.897 0 016.13-1.699l1.92-.192z" fill="#DC1922"/><path d="M8.34 19.5c.617 0 1.22-.25 1.656-.686l8.818-8.818a2.343 2.343 0 00-3.31-3.31l-8.819 8.818A2.343 2.343 0 008.34 19.5zm-.594-2.936l8.818-8.818a.842.842 0 011.19 1.19l-8.818 8.818a.842.842 0 01-1.19-1.19zM16.5 15c-1.24 0-2.25 1.01-2.25 2.25s1.01 2.25 2.25 2.25 2.25-1.01 2.25-2.25S17.74 15 16.5 15zm0 3a.75.75 0 110-1.5.75.75 0 010 1.5zM9 10.5c1.24 0 2.25-1.01 2.25-2.25S10.24 6 9 6 6.75 7.01 6.75 8.25 7.76 10.5 9 10.5zm0-3A.75.75 0 119 9a.75.75 0 010-1.5z" fill="#DC1922"/></svg>