<svg width="48" height="48" fill="none" xmlns="http://www.w3.org/2000/svg"><path d="M37.28 15.97a.75.75 0 00-1.06 0l-2.095 2.094-2.095-2.094a.75.75 0 00-1.06 0l-7.28 7.28H8.25v1.5h13.94L10.72 36.22a.75.75 0 000 1.06l9.75 9.75a.748.748 0 001.06 0l2.095-2.095 2.095 2.095a.748.748 0 001.06 0l20.25-20.25a.75.75 0 000-1.06l-9.75-9.75zm-8.035 26.474a4.4 4.4 0 00-2.995-1.194 4.4 4.4 0 00-2.995 1.194l-2.699-2.699a4.4 4.4 0 001.194-2.995 4.4 4.4 0 00-1.194-2.996l13.198-13.198a4.4 4.4 0 002.996 1.194 4.4 4.4 0 002.995-1.194l2.699 2.698a4.4 4.4 0 00-1.194 2.996 4.4 4.4 0 001.194 2.995L29.245 42.444zm-13.939-2.699A4.395 4.395 0 0016.39 37.7l3.672 3.672a4.412 4.412 0 00-2.056 1.073l-2.7-2.7zm13.199-19.19a4.396 4.396 0 002.045 1.085L16.39 35.8a4.41 4.41 0 00-1.084-2.046l13.199-13.198zM20.25 36.75c0 .712-.28 1.405-.759 1.93l-1.93-1.93 1.93-1.93c.48.525.759 1.217.759 1.93zm16.5-19.19l1.93 1.93a2.889 2.889 0 01-1.93.76 2.88 2.88 0 01-1.93-.76l1.93-1.93zm-5.25 0l1.565 1.565-1.077 1.077a2.914 2.914 0 01-2.421-.708L31.5 17.56zM14.241 34.82c.48.525.759 1.217.759 1.93 0 .712-.28 1.405-.759 1.93l-1.93-1.93 1.93-1.93zM21 45.44l-1.933-1.934a2.927 2.927 0 012.42-.708l1.078 1.077L21 45.439zm5.25 0l-1.93-1.931a2.885 2.885 0 011.93-.76c.712 0 1.405.28 1.93.76l-1.93 1.93zm17.259-17.26a2.885 2.885 0 01-.759-1.93c0-.713.28-1.405.759-1.93l1.93 1.93-1.93 1.93z" fill="#DC1922"/><path d="M31.5 27a4.504 4.504 0 00-4.5 4.5c0 2.482 2.018 4.5 4.5 4.5s4.5-2.018 4.5-4.5-2.018-4.5-4.5-4.5zm0 7.5c-1.654 0-3-1.346-3-3s1.346-3 3-3 3 1.346 3 3-1.346 3-3 3zm-29.25-.75h8.25v1.5H2.25v-1.5zM7.5 30h6v1.5h-6V30zM.75 26.25h10.5v1.5H.75v-1.5zm9.53-9.97l2.087-2.086a1.5 1.5 0 00.383.056c.827 0 1.5-.673 1.5-1.5s-.673-1.5-1.5-1.5-1.5.673-1.5 1.5c0 .133.023.26.056.384L9.22 15.22l1.06 1.06z" fill="#DC1922"/><path d="M12.75 6v1.5A5.256 5.256 0 0118 12.75 5.256 5.256 0 0112.75 18a5.24 5.24 0 01-3.472-1.312l-.993 1.125A6.742 6.742 0 0012.75 19.5a6.758 6.758 0 006.75-6.75A6.758 6.758 0 0012.75 6z" fill="#DC1922"/><path d="M21.22 7.28l1.06-1.06-3-3-1.06 1.06.97.97-.634.634a9 9 0 00-2.806-1.609V1.5A.75.75 0 0015 .75h-4.5a.75.75 0 00-.75.75v2.775c-3.49 1.24-6 4.565-6 8.475 0 4.963 4.037 9 9 9s9-4.037 9-9a8.954 8.954 0 00-2.134-5.805l.634-.635.97.97zm-9.97-5.03h3v1.636a8.99 8.99 0 00-1.5-.136 8.99 8.99 0 00-1.5.136V2.25zm1.5 18c-4.136 0-7.5-3.364-7.5-7.5s3.364-7.5 7.5-7.5 7.5 3.364 7.5 7.5-3.364 7.5-7.5 7.5z" fill="#DC1922"/></svg>