<svg width="48" height="48" fill="none" xmlns="http://www.w3.org/2000/svg"><path d="M19.971 5.94C20.495 4.276 21.935 3 23.757 3s3.263 1.275 3.787 2.94a3.745 3.745 0 012.213-.718c2.306 0 4 2.042 4 4.334v.685a3.735 3.735 0 012-.574c2.306 0 4 2.042 4 4.333v6a1 1 0 01-2 0v-6c0-1.39-.992-2.333-2-2.333s-2 .943-2 2.333v4a1 1 0 01-2 0V9.556c0-1.39-.992-2.334-2-2.334s-2 .943-2 2.334v11.11a1 1 0 11-2 0V7.334c0-1.39-.992-2.333-2-2.333s-2 .943-2 2.333V22.89a1 1 0 11-2 0V9.556c0-1.39-.992-2.334-2-2.334s-2 .943-2 2.334v18.888a1 1 0 01-1.757.654l-5.628-6.524c-.775-.853-1.978-.85-2.75.008-.83.921-.83 2.454 0 3.376a.815.815 0 01.046.054l4.895 6.284 2.874 3.907c.022.031.043.063.062.096C15.91 40.505 20.05 43 24.443 43h.314a1 1 0 010 2h-.314c-5.161 0-9.915-2.919-12.65-7.657l-2.833-3.85-4.85-6.226c-1.488-1.683-1.48-4.35.025-6.023 1.57-1.744 4.16-1.744 5.73 0l.014.015 3.878 4.496v-16.2c0-2.291 1.695-4.333 4-4.333.836 0 1.59.268 2.214.719z" fill="#DC1922"/><path d="M38.219 33.198a1 1 0 00-1.414-1.415l-2.8 2.799-1.931-1.952a1 1 0 10-1.422 1.406l2.637 2.667a1 1 0 001.418.004l3.512-3.509z" fill="#DC1922"/><path fill-rule="evenodd" clip-rule="evenodd" d="M33.272 23.151a3 3 0 011.456 0l7.515 1.879A1 1 0 0143 26v6a13 13 0 01-5.2 10.4l-2 1.5a3 3 0 01-3.6 0l-2-1.5A13 13 0 0125 32v-6a1 1 0 01.757-.97l7.515-1.879zm.97 1.94a1 1 0 00-.485 0L27 26.781V32a11 11 0 004.4 8.8l2 1.5a1 1 0 001.2 0l2-1.5A11 11 0 0041 32v-5.22l-6.757-1.689z" fill="#DC1922"/></svg>