<svg width="48" height="48" fill="none" xmlns="http://www.w3.org/2000/svg"><g clip-path="url(#clip0_2:306)" fill="#DC1922"><path d="M47.568 33.856l-2.832-7.944a.492.492 0 00-.04-.096l-4.552-12.752A1.6 1.6 0 0038.64 12h-5.92a10.592 10.592 0 001.68-5.552A6.632 6.632 0 0027.6 0a6.632 6.632 0 00-6.8 6.448A10.584 10.584 0 0022.48 12H9.368a1.6 1.6 0 00-1.512 1.064l-5.84 16.36a.487.487 0 000 .096L.432 33.848a1.6 1.6 0 00-.072.704v.192A1.6 1.6 0 001.96 36h8.872L1.008 46.656a.8.8 0 00.904 1.28L15.6 42.12l13.688 5.816a.8.8 0 00.904-1.28L20.368 36h25.696a1.6 1.6 0 001.504-2.144zm-6.68-13.96l-1.88-.8 1.376-.592.504 1.392zM27.6 1.6a5.04 5.04 0 015.2 4.848c0 4.448-3.88 7.768-5.2 8.8-1.32-1-5.2-4.32-5.2-8.8A5.04 5.04 0 0127.6 1.6zm-.4 15.272a.8.8 0 00.864 0 17.15 17.15 0 003.52-3.272h6.664l-10.704 4.616L16.848 13.6h6.768a17.149 17.149 0 003.584 3.272zM12.8 13.6l14.4 6.224a.8.8 0 00.64 0l11.288-4.864.72 2.024-3.2 1.368a.8.8 0 000 1.472L41.6 21.96l.992 2.76L32.6 20.4a.8.8 0 00-.632 0l-11.84 5.096a.8.8 0 000 1.472L37.344 34.4h-5.4l-15.896-6.864a.8.8 0 00-.64 0L2.4 33.168l.96-2.768 5.6-2.4a.8.8 0 000-1.472l-3.648-1.576.728-2.024 6.992 3.024a.8.8 0 00.64 0l9.464-4.08a.8.8 0 000-1.472L9.104 14.344l.264-.744H12.8zm-8 12.864l1.824.8-2.512 1.064.688-1.864zm3.792-10.616L20.8 21.136l-7.448 3.2-6.776-2.92 2.016-5.568zm7.344 24.672a.8.8 0 00-.624 0L4.704 45.016l8.512-9.248 2.4-2.576 2.4 2.576 8.48 9.248-10.56-4.496zm.28-9.064a.8.8 0 00-1.184 0L12.304 34.4H3.568l12.16-5.256L27.904 34.4h-9.008l-2.68-2.944zM41.384 34.4l-18.92-8.168 9.816-4.224 11.072 4.8 2.712 7.592h-4.68z"/><path d="M31.2 6.8a3.6 3.6 0 10-3.6 3.6 3.608 3.608 0 003.6-3.6zm-5.6 0a2 2 0 114 0 2 2 0 01-4 0z"/></g><defs><clipPath id="clip0_2:306"><path fill="#fff" d="M0 0h48v48H0z"/></clipPath></defs></svg>