<svg width="115" height="22" fill="none" xmlns="http://www.w3.org/2000/svg"><path d="M38.935 17.6V4.429h4.354c1.445 0 2.53.295 3.256.886.732.591 1.098 1.466 1.098 2.624a2.68 2.68 0 01-.53 1.637c-.355.47-.836.835-1.446 1.095.72.199 1.287.579 1.701 1.14.421.554.631 1.218.631 1.99 0 1.182-.387 2.11-1.161 2.786-.775.675-1.87 1.013-3.284 1.013h-4.62zm1.756-6.16v4.74h2.9c.817 0 1.46-.208 1.93-.624.475-.422.713-1.001.713-1.737 0-1.586-.872-2.38-2.616-2.38H40.69zm0-1.393h2.652c.769 0 1.382-.19 1.84-.57.462-.38.694-.896.694-1.547 0-.724-.213-1.249-.64-1.574-.427-.332-1.076-.498-1.948-.498H40.69v4.189zM52.865 17.6H51.11V4.429h1.756V17.6zm3.595 0V4.429h4.354c1.445 0 2.53.295 3.256.886.732.591 1.098 1.466 1.098 2.624a2.68 2.68 0 01-.53 1.637c-.354.47-.836.835-1.446 1.095.72.199 1.287.579 1.701 1.14.421.554.632 1.218.632 1.99 0 1.182-.388 2.11-1.162 2.786-.774.675-1.87 1.013-3.284 1.013h-4.62zm1.756-6.16v4.74h2.9c.817 0 1.46-.208 1.93-.624.475-.422.713-1.001.713-1.737 0-1.586-.872-2.38-2.616-2.38h-2.927zm0-1.393h2.653c.768 0 1.38-.19 1.838-.57.464-.38.696-.896.696-1.547 0-.724-.214-1.249-.64-1.574-.428-.332-1.077-.498-1.95-.498h-2.597v4.189zm17.644 4.115h-5.58L69.029 17.6h-1.812l5.086-13.171h1.537L78.934 17.6h-1.802l-1.272-3.438zm-5.049-1.429h4.528l-2.268-6.16-2.26 6.16zm19.502-8.304v8.956c-.006 1.242-.403 2.258-1.19 3.048-.78.79-1.841 1.233-3.183 1.33l-.466.018c-1.458 0-2.62-.389-3.485-1.167-.866-.778-1.305-1.848-1.317-3.211V4.429h1.737v8.92c0 .952.266 1.694.796 2.225.53.524 1.287.787 2.269.787.994 0 1.753-.263 2.277-.787.531-.525.796-1.264.796-2.217V4.43h1.766zm12.348 1.429h-4.28V17.6h-1.748V5.858h-4.272V4.43h10.3v1.43zM115 11.44c0 1.29-.219 2.418-.659 3.383-.439.959-1.061 1.692-1.866 2.198-.804.507-1.744.76-2.817.76-1.049 0-1.979-.253-2.79-.76-.811-.512-1.442-1.24-1.893-2.18-.445-.947-.674-2.041-.686-3.284v-.95c0-1.266.222-2.385.668-3.356.445-.97 1.073-1.712 1.884-2.225.817-.519 1.75-.778 2.799-.778 1.067 0 2.006.256 2.817.769.817.507 1.445 1.245 1.884 2.216.44.965.659 2.09.659 3.374v.833zm-1.747-.85c0-1.563-.317-2.76-.951-3.592-.635-.838-1.522-1.257-2.662-1.257-1.11 0-1.985.419-2.625 1.257-.635.832-.961 1.99-.979 3.474v.968c0 1.513.32 2.704.96 3.573.647.862 1.534 1.293 2.662 1.293 1.134 0 2.013-.407 2.635-1.22.622-.821.942-1.994.96-3.52v-.977zM13.348 0h13.347L13.347 12.467H0L13.348 0zm5.932 9.533h13.347L19.28 22H5.932L19.28 9.533z" fill="#fff"/></svg>