<svg width="155" height="30" fill="none" xmlns="http://www.w3.org/2000/svg"><path d="M52.477 24V6.04h5.868c1.948 0 3.411.402 4.39 1.208.986.806 1.479 1.999 1.479 3.578 0 .838-.238 1.583-.715 2.232-.477.642-1.126 1.14-1.948 1.493.97.271 1.734.79 2.293 1.554.567.757.85 1.661.85 2.714 0 1.612-.521 2.878-1.565 3.8-1.044.92-2.52 1.381-4.426 1.381h-6.226zm2.367-8.4v6.463h3.908c1.102 0 1.969-.283 2.602-.85.64-.576.961-1.366.961-2.37 0-2.162-1.175-3.243-3.526-3.243h-3.945zm0-1.9h3.575c1.036 0 1.862-.26 2.479-.777.624-.518.936-1.222.936-2.11 0-.987-.287-1.702-.863-2.146-.575-.452-1.45-.679-2.626-.679h-3.5V13.7zM71.253 24h-2.367V6.04h2.367V24zm4.845 0V6.04h5.868c1.948 0 3.411.402 4.39 1.208.986.806 1.479 1.999 1.479 3.578 0 .838-.238 1.583-.715 2.232-.477.642-1.126 1.14-1.948 1.493.97.271 1.734.79 2.293 1.554.567.757.85 1.661.85 2.714 0 1.612-.521 2.878-1.565 3.8-1.044.92-2.52 1.381-4.426 1.381h-6.226zm2.367-8.4v6.463h3.908c1.102 0 1.969-.283 2.602-.85.64-.576.961-1.366.961-2.37 0-2.162-1.175-3.243-3.526-3.243h-3.945zm0-1.9h3.575c1.036 0 1.862-.26 2.478-.777.625-.518.937-1.222.937-2.11 0-.987-.287-1.702-.863-2.146-.575-.452-1.45-.679-2.626-.679h-3.501V13.7zm23.782 5.613h-7.52L93.036 24h-2.441L97.45 6.04h2.071L106.389 24h-2.429l-1.713-4.688zm-6.806-1.95h6.103l-3.058-8.4-3.045 8.4zM121.726 6.04v12.212c-.009 1.694-.543 3.08-1.603 4.157-1.052 1.077-2.482 1.681-4.291 1.813l-.628.025c-1.965 0-3.53-.53-4.698-1.592-1.167-1.06-1.758-2.52-1.775-4.379V6.04h2.343v12.163c0 1.3.357 2.311 1.072 3.035.715.715 1.734 1.073 3.058 1.073 1.339 0 2.363-.358 3.07-1.073.715-.716 1.072-1.723 1.072-3.022V6.039h2.38zm16.643 1.948h-5.77V24h-2.355V7.988h-5.757V6.04h13.882v1.95zM155 15.6c0 1.76-.296 3.297-.888 4.613-.591 1.307-1.43 2.307-2.515 2.997-1.085.691-2.35 1.037-3.797 1.037-1.414 0-2.667-.346-3.76-1.037-1.093-.698-1.944-1.69-2.552-2.972-.6-1.291-.909-2.784-.925-4.478v-1.295c0-1.727.3-3.253.9-4.577.6-1.324 1.447-2.335 2.54-3.034 1.101-.708 2.359-1.061 3.772-1.061 1.439 0 2.704.35 3.798 1.048 1.101.691 1.948 1.698 2.539 3.022.592 1.316.888 2.85.888 4.602V15.6zm-2.355-1.16c0-2.13-.427-3.762-1.282-4.897-.855-1.143-2.051-1.715-3.588-1.715-1.496 0-2.675.572-3.538 1.715-.855 1.135-1.295 2.714-1.319 4.737v1.32c0 2.064.431 3.688 1.294 4.872.872 1.176 2.067 1.764 3.588 1.764 1.529 0 2.712-.555 3.551-1.665.838-1.119 1.27-2.718 1.294-4.799V14.44z" fill="#3F3F3F"/><path d="M17.99 0h17.99L17.99 17H0L17.99 0zm7.996 13h17.99l-17.99 17H7.996l17.99-17z" fill="#DC1922"/></svg>