<svg width="24" height="24" fill="none" xmlns="http://www.w3.org/2000/svg"><path d="M18.738 10.253l-8.131 8.132a3.999 3.999 0 01-5.657 0 3.999 3.999 0 010-5.657l8.839-8.839a2.5 2.5 0 013.535 3.536L9.9 14.849a1.003 1.003 0 01-1.414 0 1.003 1.003 0 010-1.414l6.718-6.717-1.06-1.061-6.718 6.717a2.5 2.5 0 003.535 3.536l7.425-7.425a3.999 3.999 0 000-5.657 3.999 3.999 0 00-5.657 0l-8.839 8.84a5.497 5.497 0 000 7.777 5.497 5.497 0 007.778 0l8.132-8.131-1.06-1.061z" fill="#000" fill-opacity=".54"/></svg>