<svg width="20" height="20" fill="none" xmlns="http://www.w3.org/2000/svg"><path fill-rule="evenodd" clip-rule="evenodd" d="M11.429 1.429H8.57c-2.06 0-3.462.003-4.512.144-1.008.135-1.476.374-1.794.692-.318.318-.557.786-.692 1.794-.141 1.05-.144 2.452-.144 4.512v2.858c0 2.06.003 3.462.144 4.512.135 1.008.374 1.476.692 1.794.318.317.786.557 1.794.692 1.05.141 2.452.144 4.512.144h2.858c2.06 0 3.462-.003 4.512-.144 1.008-.135 1.476-.375 1.794-.692.317-.318.557-.785.692-1.794.141-1.05.144-2.452.144-4.512V8.57c0-2.06-.003-3.462-.144-4.512-.135-1.008-.375-1.476-.692-1.794-.318-.318-.785-.557-1.794-.692-1.05-.141-2.452-.144-4.512-.144zM1.255 1.255C0 2.511 0 4.531 0 8.571v2.858c0 4.04 0 6.06 1.255 7.316C2.511 20 4.531 20 8.571 20h2.858c4.04 0 6.06 0 7.316-1.255C20 17.489 20 15.469 20 11.429V8.57c0-4.04 0-6.06-1.255-7.316C17.489 0 15.469 0 11.429 0H8.57C4.53 0 2.51 0 1.254 1.255zM10 14.285a4.286 4.286 0 100-8.57 4.286 4.286 0 000 8.57zm0 1.43a5.714 5.714 0 100-11.43 5.714 5.714 0 000 11.43zM16.071 5a1.071 1.071 0 100-2.143 1.071 1.071 0 000 2.143z" fill="#3F3F3F"/></svg>