<svg width="22" height="19" fill="none" xmlns="http://www.w3.org/2000/svg"><path d="M20.371.002c-.271.019-.538.08-.79.181h-.003c-.24.092-1.388.556-3.131 1.26l-6.248 2.53c-4.483 1.814-8.89 3.6-8.89 3.6l.052-.019s-.303.096-.62.305a1.69 1.69 0 00-.497.462 1.32 1.32 0 00-.234.903c.076.588.472.94.756 1.134.288.197.562.29.562.29h.007l4.133 1.338c.185.572 1.26 3.967 1.517 4.749.153.467.3.76.486.982.09.114.195.21.321.286a.964.964 0 00.208.086l-.042-.01c.013.004.023.013.032.017.034.009.057.012.1.018.654.19 1.18-.2 1.18-.2l.03-.023 2.44-2.136 4.089 3.017.093.038c.852.36 1.716.16 2.172-.194.46-.355.638-.81.638-.81l.03-.073 3.16-15.566c.09-.385.112-.744.013-1.093a1.477 1.477 0 00-.66-.852 1.634 1.634 0 00-.904-.22zm-.085 1.668c-.004.051.007.046-.017.144v.01l-3.13 15.403c-.014.022-.037.07-.1.118-.066.05-.118.082-.393-.022l-5.002-3.688-3.022 2.648.635-3.898 8.172-7.323c.337-.301.225-.365.225-.365.023-.37-.509-.108-.509-.108L6.84 10.727l-.004-.016-4.939-1.6V9.11l-.012-.003a.236.236 0 00.025-.01l.027-.013.026-.009s4.41-1.787 8.894-3.601c2.244-.91 4.506-1.825 6.245-2.531A699.72 699.72 0 0120.2 1.697c.069-.026.036-.026.086-.026z" fill="#3F3F3F"/></svg>