<svg width="22" height="16" fill="none" xmlns="http://www.w3.org/2000/svg"><path d="M22 7.931c0-.054 0-.116-.003-.187-.002-.2-.007-.424-.012-.662a37.253 37.253 0 00-.108-2.017c-.073-.889-.181-1.63-.329-2.187A3.438 3.438 0 0019.135.453C18.44.266 17.079.15 15.165.08c-.912-.035-1.886-.057-2.861-.07L11.36 0h-.722c-.285.002-.601.005-.943.01-.975.012-1.95.034-2.86.069-1.915.074-3.278.19-3.97.374A3.42 3.42 0 00.451 2.878c-.15.557-.256 1.298-.33 2.187C.07 5.71.035 6.395.016 7.082c-.008.238-.01.462-.013.662L0 7.93v.138c0 .054 0 .116.002.187l.013.662c.02.687.054 1.372.108 2.017.073.889.181 1.63.329 2.187a3.426 3.426 0 002.413 2.425c.693.187 2.056.303 3.97.374.912.035 1.886.057 2.861.07l.943.009h.722c.285-.002.601-.005.943-.01.975-.012 1.95-.034 2.86-.069 1.915-.074 3.278-.19 3.97-.374a3.422 3.422 0 002.414-2.425c.15-.557.256-1.298.33-2.187.053-.645.088-1.33.107-2.017.008-.238.01-.462.012-.662 0-.071.003-.133.003-.187V7.93zm-1.768.128c0 .052 0 .108-.002.175l-.013.633c-.017.655-.051 1.31-.103 1.918-.066.793-.16 1.443-.275 1.879a1.657 1.657 0 01-1.164 1.17c-.515.137-1.814.248-3.58.314a111.51 111.51 0 01-3.744.077h-.702l-.928-.008c-.96-.012-1.92-.034-2.817-.069-1.765-.069-3.066-.177-3.58-.315a1.659 1.659 0 01-1.163-1.17c-.116-.435-.209-1.085-.275-1.878a35.767 35.767 0 01-.103-1.918c-.008-.23-.01-.443-.013-.633l-.002-.175v-.118c0-.052 0-.108.002-.175l.013-.633c.017-.655.051-1.31.103-1.918.066-.793.16-1.443.275-1.879a1.657 1.657 0 011.164-1.17c.515-.137 1.814-.248 3.58-.314a111.188 111.188 0 013.744-.077h.702l.928.008c.96.012 1.92.034 2.816.069 1.766.069 3.067.177 3.58.315.565.152 1.012.6 1.164 1.17.116.435.209 1.085.275 1.878.052.608.084 1.263.103 1.918.008.23.01.443.013.633l.002.175v.118zM8.815 11.3l5.696-3.324-5.696-3.274V11.3z" fill="#3F3F3F"/></svg>