<svg width="48" height="48" fill="none" xmlns="http://www.w3.org/2000/svg"><path d="M13.5 8.25H21v1.5h-7.5v-1.5zm0 3H24v1.5H13.5v-1.5zm0 3h18v1.5h-18v-1.5zm.75 7.5h16.5a.75.75 0 00.75-.75v-3a.75.75 0 00-.75-.75h-16.5a.75.75 0 00-.75.75v3a.75.75 0 00.75.75zm.75-3h15v1.5H15v-1.5zm-10.5 4.5h12v1.5h-12v-1.5zm0 3h9.75v1.5H4.5v-1.5z" fill="#DC1922"/><path d="M37.5 23.645V1.5a.75.75 0 00-.75-.75H5.25a.75.75 0 00-.75.75v2.25H2.25a.75.75 0 00-.75.75v42a.75.75 0 00.75.75H34.5a11.992 11.992 0 003-23.605zM6 2.25h30v21.104a11.945 11.945 0 00-1.5-.104v-12a.75.75 0 00-.22-.53l-6.75-6.75a.75.75 0 00-.53-.22H6v-1.5zm21.75 4.06l4.19 4.19h-4.19V6.31zM3 45.75V5.25h23.25v6A.75.75 0 0027 12h6v11.354a11.988 11.988 0 00-4.297 22.396H3zm31.5 0A10.5 10.5 0 1145 35.25a10.511 10.511 0 01-10.5 10.5z" fill="#DC1922"/><path d="M13.28 42.22a.752.752 0 00-.767-.182l-1.263.422v-1.21a.75.75 0 00-1.28-.53l-.97.97v-.44a2.25 2.25 0 00-4.5 0v3H6v-3a.75.75 0 111.5 0v2.25a.75.75 0 001.28.53l.97-.97v.44a.75.75 0 00.987.712l1.847-.616a3.28 3.28 0 001.976.654h1.19v-1.5h-1.19a1.824 1.824 0 01-1.28-.53zM4.5 29.25H21v1.5H4.5v-1.5zm0 3h12v1.5h-12v-1.5zm3.75 3H21v1.5H8.25v-1.5zm30.97-6.53l-6.97 6.97-2.47-2.47a.75.75 0 00-1.06 0l-2.25 2.25a.75.75 0 000 1.06l5.25 5.25a.75.75 0 001.06 0l9.75-9.75a.75.75 0 000-1.06l-2.25-2.25a.75.75 0 00-1.06 0zm-6.97 11.47L28.06 36l1.19-1.19 2.47 2.47a.75.75 0 001.06 0l6.97-6.97 1.19 1.19-8.69 8.69z" fill="#DC1922"/></svg>