<svg width="155" height="30" viewBox="0 0 155 30" fill="none" xmlns="http://www.w3.org/2000/svg">
<path d="M52.4769 24V6.03944H58.3454C60.2934 6.03944 61.7564 6.4424 62.7345 7.24832C63.7208 8.05424 64.2139 9.24667 64.2139 10.8256C64.2139 11.6644 63.9756 12.4087 63.4989 13.0584C63.0222 13.6998 62.3728 14.1973 61.5509 14.5509C62.5208 14.8223 63.2852 15.3404 63.8441 16.1052C64.4112 16.8618 64.6948 17.7664 64.6948 18.819C64.6948 20.4309 64.1728 21.6973 63.129 22.6184C62.0852 23.5394 60.6098 24 58.703 24H52.4769ZM54.8441 15.5995V22.0633H58.7523C59.8537 22.0633 60.7208 21.7796 61.3537 21.2121C61.9948 20.6365 62.3153 19.847 62.3153 18.8437C62.3153 16.6809 61.14 15.5995 58.7893 15.5995H54.8441ZM54.8441 13.6998H58.4194C59.455 13.6998 60.2811 13.4408 60.8975 12.9227C61.5222 12.4046 61.8345 11.7014 61.8345 10.8133C61.8345 9.82644 61.5468 9.11098 60.9715 8.6669C60.3961 8.2146 59.5208 7.98845 58.3454 7.98845H54.8441V13.6998Z" fill="#3F3F3F"/>
<path d="M71.2532 24H68.886V6.03944H71.2532V24Z" fill="#3F3F3F"/>
<path d="M76.0979 24V6.03944H81.9664C83.9143 6.03944 85.3773 6.4424 86.3554 7.24832C87.3417 8.05424 87.8349 9.24667 87.8349 10.8256C87.8349 11.6644 87.5965 12.4087 87.1198 13.0584C86.6431 13.6998 85.9938 14.1973 85.1718 14.5509C86.1417 14.8223 86.9061 15.3404 87.465 16.1052C88.0321 16.8618 88.3157 17.7664 88.3157 18.819C88.3157 20.4309 87.7938 21.6973 86.7499 22.6184C85.7061 23.5394 84.2307 24 82.3239 24H76.0979ZM78.465 15.5995V22.0633H82.3732C83.4746 22.0633 84.3417 21.7796 84.9746 21.2121C85.6157 20.6365 85.9362 19.847 85.9362 18.8437C85.9362 16.6809 84.7609 15.5995 82.4102 15.5995H78.465ZM78.465 13.6998H82.0403C83.076 13.6998 83.902 13.4408 84.5184 12.9227C85.1431 12.4046 85.4554 11.7014 85.4554 10.8133C85.4554 9.82644 85.1677 9.11098 84.5924 8.6669C84.017 8.2146 83.1417 7.98845 81.9664 7.98845H78.465V13.6998Z" fill="#3F3F3F"/>
<path d="M102.247 19.3125H94.7261L93.0371 24H90.596L97.4508 6.03944H99.522L106.389 24H103.96L102.247 19.3125ZM95.4412 17.3634H101.544L98.4864 8.96295L95.4412 17.3634Z" fill="#3F3F3F"/>
<path d="M121.726 6.03944V18.2516C121.717 19.9457 121.183 21.3314 120.123 22.4087C119.071 23.486 117.641 24.0904 115.832 24.222L115.204 24.2467C113.239 24.2467 111.674 23.7162 110.506 22.6554C109.339 21.5945 108.748 20.1348 108.731 18.2763V6.03944H111.074V18.2023C111.074 19.5016 111.431 20.5131 112.146 21.2368C112.861 21.9523 113.88 22.31 115.204 22.31C116.543 22.31 117.567 21.9523 118.274 21.2368C118.989 20.5213 119.346 19.5139 119.346 18.2146V6.03944H121.726Z" fill="#3F3F3F"/>
<path d="M138.369 7.98845H132.599V24H130.244V7.98845H124.487V6.03944H138.369V7.98845Z" fill="#3F3F3F"/>
<path d="M155 15.5995C155 17.3593 154.704 18.8972 154.112 20.213C153.521 21.5205 152.682 22.5197 151.597 23.2105C150.512 23.9013 149.247 24.2467 147.8 24.2467C146.386 24.2467 145.133 23.9013 144.04 23.2105C142.947 22.5115 142.096 21.5205 141.488 20.2376C140.888 18.9465 140.579 17.4539 140.563 15.7598V14.4646C140.563 12.7376 140.863 11.2121 141.463 9.88812C142.063 8.56411 142.91 7.55259 144.003 6.85358C145.104 6.14634 146.362 5.79272 147.775 5.79272C149.214 5.79272 150.479 6.14223 151.573 6.84124C152.674 7.53203 153.521 8.53944 154.112 9.86345C154.704 11.1792 155 12.713 155 14.4646V15.5995ZM152.645 14.4399C152.645 12.31 152.218 10.6776 151.363 9.54272C150.508 8.39963 149.312 7.82809 147.775 7.82809C146.279 7.82809 145.1 8.39963 144.237 9.54272C143.382 10.6776 142.942 12.2565 142.918 14.2796V15.5995C142.918 17.6636 143.349 19.2878 144.212 20.472C145.084 21.648 146.279 22.236 147.8 22.236C149.329 22.236 150.512 21.6809 151.351 20.5707C152.189 19.4523 152.621 17.8528 152.645 15.7722V14.4399Z" fill="#3F3F3F"/>
<path d="M17.9901 0H35.9803L17.9901 17H0L17.9901 0Z" fill="#DC1922"/>
<path d="M25.9857 13H43.9759L25.9857 30H7.99561L25.9857 13Z" fill="#DC1922"/>
</svg>
