<svg width="115" height="22" viewBox="0 0 115 22" fill="none" xmlns="http://www.w3.org/2000/svg">
<path d="M38.9346 17.6V4.42897H43.2886C44.7339 4.42897 45.8193 4.72447 46.545 5.31548C47.2768 5.90649 47.6427 6.78094 47.6427 7.93884C47.6427 8.55397 47.4658 9.09975 47.1121 9.57617C46.7584 10.0466 46.2767 10.4114 45.6669 10.6707C46.3864 10.8698 46.9536 11.2497 47.3682 11.8105C47.789 12.3654 47.9994 13.0288 47.9994 13.8007C47.9994 14.9827 47.6122 15.9114 46.8377 16.5869C46.0632 17.2623 44.9686 17.6 43.5539 17.6H38.9346ZM40.6908 11.4397V16.1798H43.5905C44.4076 16.1798 45.051 15.9717 45.5205 15.5556C45.9962 15.1335 46.234 14.5545 46.234 13.8188C46.234 12.2327 45.362 11.4397 43.6179 11.4397H40.6908ZM40.6908 10.0466H43.3435C44.1119 10.0466 44.7247 9.8566 45.1821 9.47667C45.6455 9.09673 45.8773 8.58111 45.8773 7.92979C45.8773 7.20611 45.6638 6.68144 45.237 6.35578C44.8101 6.02409 44.1606 5.85824 43.2886 5.85824H40.6908V10.0466Z" fill="white"/>
<path d="M52.8653 17.6H51.1091V4.42897H52.8653V17.6Z" fill="white"/>
<path d="M56.4598 17.6V4.42897H60.8138C62.2591 4.42897 63.3445 4.72447 64.0702 5.31548C64.802 5.90649 65.1679 6.78094 65.1679 7.93884C65.1679 8.55397 64.991 9.09975 64.6373 9.57617C64.2836 10.0466 63.8019 10.4114 63.1921 10.6707C63.9117 10.8698 64.4788 11.2497 64.8934 11.8105C65.3142 12.3654 65.5246 13.0288 65.5246 13.8007C65.5246 14.9827 65.1374 15.9114 64.3629 16.5869C63.5885 17.2623 62.4938 17.6 61.0791 17.6H56.4598ZM58.216 11.4397V16.1798H61.1157C61.9328 16.1798 62.5762 15.9717 63.0457 15.5556C63.5214 15.1335 63.7592 14.5545 63.7592 13.8188C63.7592 12.2327 62.8872 11.4397 61.1431 11.4397H58.216ZM58.216 10.0466H60.8687C61.6371 10.0466 62.2499 9.8566 62.7073 9.47667C63.1707 9.09673 63.4025 8.58111 63.4025 7.92979C63.4025 7.20611 63.189 6.68144 62.7622 6.35578C62.3353 6.02409 61.6858 5.85824 60.8138 5.85824H58.216V10.0466Z" fill="white"/>
<path d="M75.8605 14.1625H70.2808L69.0276 17.6H67.2165L72.3023 4.42897H73.839L78.934 17.6H77.132L75.8605 14.1625ZM70.8113 12.7332H75.3391L73.0706 6.57288L70.8113 12.7332Z" fill="white"/>
<path d="M90.3126 4.42897V13.3846C90.3066 14.6269 89.9102 15.6431 89.1235 16.4331C88.343 17.2231 87.2819 17.6664 85.9403 17.7629L85.4738 17.7809C84.0164 17.7809 82.8547 17.392 81.9887 16.614C81.1228 15.836 80.6837 14.7656 80.6716 13.4027V4.42897H82.4095V13.3484C82.4095 14.3012 82.6748 15.043 83.2053 15.5737C83.7358 16.0984 84.492 16.3607 85.4738 16.3607C86.4678 16.3607 87.227 16.0984 87.7514 15.5737C88.282 15.049 88.5472 14.3103 88.5472 13.3574V4.42897H90.3126Z" fill="white"/>
<path d="M102.661 5.85824H98.3801V17.6H96.633V5.85824H92.3612V4.42897H102.661V5.85824Z" fill="white"/>
<path d="M115 11.4397C115 12.7302 114.781 13.858 114.341 14.8229C113.902 15.7818 113.28 16.5145 112.475 17.0211C111.671 17.5277 110.731 17.7809 109.658 17.7809C108.609 17.7809 107.679 17.5277 106.868 17.0211C106.057 16.5085 105.426 15.7818 104.975 14.841C104.53 13.8942 104.301 12.7996 104.289 11.5573V10.6074C104.289 9.34097 104.511 8.22228 104.957 7.25134C105.402 6.28039 106.03 5.53862 106.841 5.02601C107.658 4.50737 108.591 4.24805 109.64 4.24805C110.707 4.24805 111.646 4.50435 112.457 5.01696C113.274 5.52354 113.902 6.2623 114.341 7.23324C114.781 8.19816 115 9.32288 115 10.6074V11.4397ZM113.253 10.5893C113.253 9.02738 112.936 7.83028 112.302 6.99805C111.667 6.15978 110.78 5.74065 109.64 5.74065C108.53 5.74065 107.655 6.15978 107.015 6.99805C106.38 7.83028 106.054 8.98818 106.036 10.4717V11.4397C106.036 12.9534 106.356 14.1444 106.996 15.0129C107.643 15.8752 108.53 16.3064 109.658 16.3064C110.792 16.3064 111.671 15.8994 112.293 15.0852C112.915 14.265 113.235 13.0921 113.253 11.5663V10.5893Z" fill="white"/>
<path d="M13.3475 0H26.695L13.3475 12.4667H0L13.3475 0Z" fill="white"/>
<path d="M19.2796 9.5332H32.6272L19.2796 21.9999H5.93213L19.2796 9.5332Z" fill="white"/>
</svg>
